<?xml version="1.0" encoding="utf-8"?>
<!-- Generator: Adobe Illustrator 15.1.0, SVG Export Plug-In  -->
<!DOCTYPE svg PUBLIC "-//W3C//DTD SVG 1.1//EN" "http://www.w3.org/Graphics/SVG/1.1/DTD/svg11.dtd" [
	<!ENTITY ns_flows "http://ns.adobe.com/Flows/1.0/">
]>
<svg version="1.1"
	 xmlns="http://www.w3.org/2000/svg" xmlns:xlink="http://www.w3.org/1999/xlink" xmlns:a="http://ns.adobe.com/AdobeSVGViewerExtensions/3.0/"
	 x="0px" y="0px" width="90px" height="90px" viewBox="0 0 90 90" overflow="visible" enable-background="new 0 0 90 90"
	 xml:space="preserve">
<defs>
</defs>
<path fill="#D71F37" d="M69.875,7.499C62.47,2.594,53.885,0,45.044,0C29.883,0,15.843,7.53,7.482,20.141
	C-6.232,40.817-0.559,68.793,20.13,82.506C27.532,87.405,36.122,90,44.96,90c15.161,0,29.199-7.531,37.564-20.143
	C96.235,49.181,90.562,21.205,69.875,7.499z"/>
<path fill="#BD192F" d="M79.833,68.074C72.066,79.783,59.032,86.772,44.96,86.772c-8.202,0-16.172-2.406-23.046-6.96
	C2.71,67.087-2.557,41.117,10.173,21.923"/>
<path fill="#FFFFFF" d="M68.164,58.475H66.03v2.973h2.137c2.109,0,3.827,1.745,3.827,3.895c0.003,1.041-0.398,2.018-1.125,2.756
	c-0.729,0.733-1.687,1.139-2.704,1.142c-2.111,0-3.831-1.746-3.832-3.895l-0.016-24.022h-2.958l0.015,24.023
	c0,3.791,3.047,6.87,6.791,6.87h0.003c3.747-0.003,6.792-3.091,6.789-6.874C74.952,61.558,71.906,58.475,68.164,58.475z"/>
<path fill="#FFFFFF" d="M57.524,28.974c2.109,0,3.827,1.745,3.827,3.891l0.006,2.313l2.96-0.003l-0.013-2.51
	c-0.109-3.678-3.153-6.671-6.783-6.671l-24.852,0.005l0.01,2.983L57.524,28.974z"/>
<path fill="#FFFFFF" d="M24.225,28.984h2.186v-2.982h-2.189c-1.017,0-1.979-0.403-2.705-1.134c-0.727-0.739-1.125-1.717-1.125-2.753
	c0-1.038,0.398-2.018,1.124-2.758c0.727-0.734,1.688-1.139,2.706-1.139c2.11,0,3.829,1.748,3.833,3.892l0.004,11.469v0.105
	c0.028,0.786,0.673,1.418,1.467,1.418h1.496l-0.009-12.994c0-3.788-3.048-6.867-6.796-6.867c-1.813,0-3.519,0.717-4.801,2.018
	c-1.283,1.3-1.988,3.025-1.987,4.856C17.433,25.903,20.482,28.984,24.225,28.984z"/>
<path fill="#FFFFFF" d="M22.946,56.117c-1.533-1.583-2.309-3.926-2.309-6.962c-0.002-3.039,0.772-5.381,2.302-6.959
	c1.525-1.573,3.796-2.371,6.788-2.374l0.258-0.02l33.352,0.002c1.04,0,2.018,0.401,2.751,1.128c0.699,0.688,1.113,1.576,1.149,2.503
	l-0.003,2.038h1.496c0.796,0,1.438-0.632,1.468-1.42v-0.103l0.001-0.502h0.001c0-0.003-0.001-0.004-0.001-0.007l-0.025-0.29
	c-0.25-3.412-3.129-6.196-6.665-6.3l-33.89-0.009l-0.809,0.009v0.011c-7.191,0.319-11.141,4.669-11.135,12.296
	c0.001,7.932,4.256,12.299,11.979,12.299h0.012l29.922-0.008v-2.976l-29.934,0.013C26.728,58.487,24.468,57.69,22.946,56.117z"/>
</svg>
