<?xml version="1.0" encoding="utf-8"?>
<!-- Generator: Adobe Illustrator 15.1.0, SVG Export Plug-In  -->
<!DOCTYPE svg PUBLIC "-//W3C//DTD SVG 1.1//EN" "http://www.w3.org/Graphics/SVG/1.1/DTD/svg11.dtd" [
	<!ENTITY ns_flows "http://ns.adobe.com/Flows/1.0/">
]>
<svg version="1.1"
	 xmlns="http://www.w3.org/2000/svg" xmlns:xlink="http://www.w3.org/1999/xlink" xmlns:a="http://ns.adobe.com/AdobeSVGViewerExtensions/3.0/"
	 x="0px" y="0px" width="289px" height="289px" viewBox="-0.651 -0.465 289 289"
	 overflow="visible" enable-background="new -0.651 -0.465 289 289" xml:space="preserve">
<defs>
</defs>
<g id="XMLID_2_">
	<g>
		<path fill="#FFFFFF" d="M220.339,28.825c63.54,42.11,80.95,128.06,38.85,191.59c-25.689,38.73-68.8,61.86-115.34,61.86
			c-27.15,0-53.52-7.96-76.24-23.04c-63.52-42.101-80.95-128.04-38.84-191.57c25.68-38.74,68.79-61.87,115.34-61.87
			C171.25,5.795,197.619,13.765,220.339,28.825z M217.529,230.495c11.891-0.02,21.561-9.82,21.551-21.84
			c-0.011-12.03-9.69-21.82-21.57-21.82h-6.771v9.44h6.79c6.69,0,12.141,5.56,12.141,12.38c0.01,3.3-1.261,6.41-3.57,8.75
			c-2.3,2.33-5.36,3.62-8.59,3.63c-6.7,0-12.16-5.55-12.16-12.37l-0.05-76.31h-9.391l0.04,76.31c0,12.04,9.681,21.83,21.561,21.83
			H217.529z M223.979,139.105c0,0-0.01-0.01-0.01-0.02l-0.07-0.92c-0.8-10.84-9.939-19.68-21.17-20.01l-107.59-0.03l-2.57,0.03v0.04
			c-22.83,1.01-35.37,14.82-35.35,39.05c0,25.2,13.51,39.07,38.03,39.07h0.04l95-0.021v-9.46l-95.041,0.04
			c-9.3,0-16.46-2.53-21.3-7.53c-4.87-5.02-7.33-12.46-7.33-22.109c-0.01-9.65,2.45-17.09,7.31-22.1c4.84-5,12.05-7.54,21.55-7.55
			l0.82-0.06l105.89,0.01c3.3,0,6.41,1.27,8.74,3.58c2.21,2.19,3.53,5.01,3.65,7.96l-0.011,6.47h4.75c2.521,0,4.561-2.01,4.65-4.51
			v-0.33v-1.6H223.979z M205.299,112.825l-0.04-7.97c-0.351-11.69-10.01-21.19-21.54-21.19l-78.9,0.01l0.03,9.48l78.88-0.03
			c6.7,0,12.15,5.55,12.16,12.36l0.01,7.35L205.299,112.825z M99.589,112.585l-0.03-41.27c0-12.03-9.68-21.81-21.58-21.81
			c-5.75,0-11.17,2.27-15.24,6.41c-4.07,4.13-6.31,9.6-6.31,15.43c0.02,12.03,9.7,21.82,21.58,21.82h6.94v-9.48h-6.95
			c-3.23,0-6.28-1.28-8.58-3.6c-2.31-2.35-3.58-5.45-3.58-8.75c0-3.29,1.27-6.4,3.57-8.76c2.31-2.33,5.36-3.61,8.59-3.61
			c6.7,0,12.16,5.54,12.17,12.36l0.01,36.43v0.33c0.09,2.5,2.13,4.5,4.66,4.5H99.589z"/>
		<path d="M222.939,24.905c65.69,43.55,83.7,132.41,40.17,198.09c-26.56,40.07-71.13,63.99-119.26,63.99
			c-28.07,0-55.34-8.24-78.84-23.82c-65.69-43.55-83.7-132.42-40.16-198.1c26.55-40.05,71.12-63.97,119.26-63.97
			C172.179,1.095,199.429,9.335,222.939,24.905z M259.189,220.415c42.101-63.53,24.69-149.48-38.85-191.59
			c-22.721-15.06-49.09-23.03-76.23-23.03c-46.55,0-89.66,23.13-115.34,61.87c-42.11,63.53-24.68,149.47,38.84,191.57
			c22.72,15.08,49.09,23.04,76.24,23.04C190.389,282.275,233.5,259.146,259.189,220.415z"/>
		<path d="M239.08,208.655c0.01,12.02-9.66,21.82-21.551,21.84h-0.02c-11.88,0-21.561-9.79-21.561-21.83l-0.04-76.31h9.391
			l0.05,76.31c0,6.82,5.46,12.37,12.16,12.37c3.229-0.01,6.29-1.3,8.59-3.63c2.31-2.34,3.58-5.45,3.57-8.75
			c0-6.82-5.45-12.38-12.141-12.38h-6.79v-9.44h6.771C229.389,186.835,239.069,196.625,239.08,208.655z"/>
		<path d="M223.969,139.105v1.6v0.33c-0.09,2.5-2.13,4.51-4.65,4.51h-4.75l0.011-6.47c-0.12-2.95-1.44-5.77-3.65-7.96
			c-2.33-2.31-5.44-3.58-8.74-3.58l-105.89-0.01l-0.82,0.06c-9.5,0.01-16.71,2.55-21.55,7.55c-4.86,5.01-7.32,12.45-7.31,22.1
			c0,9.649,2.46,17.09,7.33,22.109c4.84,5,12,7.53,21.3,7.53l95.041-0.04v9.46l-95,0.021h-0.04c-24.52,0-38.03-13.87-38.03-39.07
			c-0.02-24.23,12.52-38.04,35.35-39.05v-0.04l2.57-0.03l107.59,0.03c11.23,0.33,20.37,9.17,21.17,20.01l0.07,0.92
			c0,0.01,0.01,0.02,0.01,0.02H223.969z"/>
		<path d="M205.259,104.855l0.04,7.97l-9.4,0.01l-0.01-7.35c-0.01-6.81-5.46-12.36-12.16-12.36l-78.88,0.03l-0.03-9.48l78.9-0.01
			C195.25,83.665,204.909,93.165,205.259,104.855z"/>
		<path d="M99.559,71.315l0.03,41.27h-4.75c-2.53,0-4.57-2-4.66-4.5v-0.33l-0.01-36.43c-0.01-6.82-5.47-12.36-12.17-12.36
			c-3.23,0-6.28,1.28-8.59,3.61c-2.3,2.36-3.57,5.47-3.57,8.76c0,3.3,1.27,6.4,3.58,8.75c2.3,2.32,5.35,3.6,8.58,3.6h6.95v9.48
			h-6.94c-11.88,0-21.56-9.79-21.58-21.82c0-5.83,2.24-11.3,6.31-15.43c4.07-4.14,9.49-6.41,15.24-6.41
			C89.879,49.505,99.559,59.285,99.559,71.315z"/>
	</g>
	<g>
		<path fill="none" stroke="#000000" stroke-width="2.1908" stroke-miterlimit="10" d="M222.939,24.905
			c-23.51-15.57-50.76-23.81-78.83-23.81c-48.14,0-92.71,23.92-119.26,63.97c-43.54,65.68-25.53,154.55,40.16,198.1
			c23.5,15.58,50.77,23.82,78.84,23.82c48.13,0,92.7-23.92,119.26-63.99C306.639,157.315,288.629,68.455,222.939,24.905z"/>
		<path fill="none" stroke="#000000" stroke-width="2.1908" stroke-miterlimit="10" d="M67.609,259.235
			c-63.52-42.101-80.95-128.04-38.84-191.57c25.68-38.74,68.79-61.87,115.34-61.87c27.141,0,53.51,7.97,76.23,23.03
			c63.54,42.11,80.95,128.06,38.85,191.59c-25.689,38.73-68.8,61.86-115.34,61.86C116.699,282.275,90.329,274.315,67.609,259.235z"
			/>
	</g>
</g>
</svg>
